:version	1.10
:name	0101
:units
	mass	kg
	length	m
	angle	deg
:documentation
	fps:30
:root
	axis	XYZ
	order	TX	TY	TZ	RX	RY	RZ
	position	0.00	0.00	0.00
	orientation	0.00	0.00	0.00
:bonedata
	begin
		id	1
		name	Head
		direction	-18.5	116.2	-38.8
		length	123.9
		axis	0.0	0.0	0.0	XYZ
		dof	rx	ry	rz
		limits	(-inf	inf)
			(-inf	inf)
			(-inf	inf)
	end
	begin
		id	2
		name	Neck
		direction	-1.6	89.5	-15.3
		length	90.8
		axis	0.0	0.0	0.0	XYZ
		dof	rx	ry	rz
		limits	(-inf	inf)
			(-inf	inf)
			(-inf	inf)
	end
	begin
		id	3
		name	LeftCollar
		direction	-5.0	276.0	-47.2
		length	280.1
		axis	0.0	0.0	0.0	XYZ
		dof	rx	ry	rz
		limits	(-inf	inf)
			(-inf	inf)
			(-inf	inf)
	end
	begin
		id	4
		name	Torso
		direction	4.0	199.4	8.5
		length	199.7
		axis	0.0	0.0	0.0	XYZ
		dof	rx	ry	rz
		limits	(-inf	inf)
			(-inf	inf)
			(-inf	inf)
	end
	begin
		id	5
		name	LeftShoulder
		direction	170.7	-14.1	-44.7
		length	177.0
		axis	0.0	0.0	0.0	XYZ
		dof	rx	ry	rz
		limits	(-inf	inf)
			(-inf	inf)
			(-inf	inf)
	end
	begin
		id	6
		name	RightShoulder
		direction	-174.2	6.3	52.4
		length	182.0
		axis	0.0	0.0	0.0	XYZ
		dof	rx	ry	rz
		limits	(-inf	inf)
			(-inf	inf)
			(-inf	inf)
	end
	begin
		id	7
		name	LeftElbow
		direction	55.3	-271.7	26.6
		length	278.5
		axis	0.0	0.0	0.0	XYZ
		dof	rx	ry	rz
		limits	(-inf	inf)
			(-inf	inf)
			(-inf	inf)
	end
	begin
		id	8
		name	RightElbow
		direction	-37.0	-268.0	66.2
		length	278.5
		axis	0.0	0.0	0.0	XYZ
		dof	rx	ry	rz
		limits	(-inf	inf)
			(-inf	inf)
			(-inf	inf)
	end
	begin
		id	9
		name	LeftWrist
		direction	69.1	-260.5	-128.7
		length	298.7
		axis	0.0	0.0	0.0	XYZ
		dof	rx	ry	rz
		limits	(-inf	inf)
			(-inf	inf)
			(-inf	inf)
	end
	begin
		id	10
		name	RightWrist
		direction	-79.9	-277.4	-76.9
		length	298.7
		axis	0.0	0.0	0.0	XYZ
		dof	rx	ry	rz
		limits	(-inf	inf)
			(-inf	inf)
			(-inf	inf)
	end
	begin
		id	11
		name	LeftHand
		direction	13.8	-52.1	-25.7
		length	59.7
		axis	0.0	0.0	0.0	XYZ
		dof	rx	ry	rz
		limits	(-inf	inf)
			(-inf	inf)
			(-inf	inf)
	end
	begin
		id	12
		name	RightHand
		direction	-16.0	-55.5	-15.4
		length	59.7
		axis	0.0	0.0	0.0	XYZ
		dof	rx	ry	rz
		limits	(-inf	inf)
			(-inf	inf)
			(-inf	inf)
	end
	begin
		id	13
		name	LeftHip
		direction	117.3	-70.1	12.8
		length	137.3
		axis	0.0	0.0	0.0	XYZ
		dof	rx	ry	rz
		limits	(-inf	inf)
			(-inf	inf)
			(-inf	inf)
	end
	begin
		id	14
		name	RightHip
		direction	-108.5	-76.7	41.0
		length	139.0
		axis	0.0	0.0	0.0	XYZ
		dof	rx	ry	rz
		limits	(-inf	inf)
			(-inf	inf)
			(-inf	inf)
	end
	begin
		id	15
		name	LeftKnee
		direction	-0.2	-428.3	-95.5
		length	438.9
		axis	0.0	0.0	0.0	XYZ
		dof	rx	ry	rz
		limits	(-inf	inf)
			(-inf	inf)
			(-inf	inf)
	end
	begin
		id	16
		name	RightKnee
		direction	16.9	-434.8	-56.9
		length	438.9
		axis	0.0	0.0	0.0	XYZ
		dof	rx	ry	rz
		limits	(-inf	inf)
			(-inf	inf)
			(-inf	inf)
	end
	begin
		id	17
		name	LeftAnkle
		direction	51.1	-389.3	75.6
		length	399.8
		axis	0.0	0.0	0.0	XYZ
		dof	rx	ry	rz
		limits	(-inf	inf)
			(-inf	inf)
			(-inf	inf)
	end
	begin
		id	18
		name	RightAnkle
		direction	-36.9	-388.8	85.6
		length	399.8
		axis	0.0	0.0	0.0	XYZ
		dof	rx	ry	rz
		limits	(-inf	inf)
			(-inf	inf)
			(-inf	inf)
	end
:hierarchy
	begin
		Neck	Head
		LeftCollar	Neck	LeftShoulder	RightShoulder
		Torso	LeftCollar
		root	Torso	LeftHip	RightHip
		LeftShoulder	LeftElbow
		RightShoulder	RightElbow
		LeftElbow	LeftWrist
		RightElbow	RightWrist
		LeftWrist	LeftHand
		RightWrist	RightHand
		LeftHip	LeftKnee
		RightHip	RightKnee
		LeftKnee	LeftAnkle
		RightKnee	RightAnkle
	end

:FULLY-SPECIFIED
:DEGREES
208
Head	-40.65	7.20	-6.12
Neck	-40.65	7.20	-6.12
LeftCollar	-40.65	7.20	-6.12
Torso	-40.65	7.20	-6.12
root	120.56	-463.97	2956.24	-9.85	-2.04	0.14
LeftShoulder	-20.95	-2.75	-47.24
RightShoulder	-15.78	32.49	64.06
LeftElbow	-47.37	60.96	-91.81
RightElbow	-16.86	-37.73	83.20
LeftWrist	-43.70	58.88	-87.58
RightWrist	-17.21	-39.18	83.77
LeftHand	-43.70	58.88	-87.58
RightHand	-17.21	-39.18	83.77
LeftHip	78.19	-10.43	0.22
RightHip	46.73	9.42	8.13
LeftKnee	-34.72	-10.43	0.22
RightKnee	-22.21	9.42	8.13
LeftAnkle	-34.72	-10.43	0.22
RightAnkle	0.00	0.00	0.00
209
Head	-40.65	7.20	-6.12
Neck	-40.65	7.20	-6.12
LeftCollar	-40.65	7.20	-6.12
Torso	-40.65	7.20	-6.12
root	120.56	-463.97	2956.24	-9.85	-2.04	0.14
LeftShoulder	-20.95	-2.75	-47.24
RightShoulder	-15.78	32.49	64.06
LeftElbow	-47.37	60.96	-91.81
RightElbow	-16.86	-37.73	83.20
LeftWrist	-43.70	58.88	-87.58
RightWrist	-17.21	-39.18	83.77
LeftHand	-43.70	58.88	-87.58
RightHand	-17.21	-39.18	83.77
LeftHip	78.19	-10.43	0.22
RightHip	46.73	9.42	8.13
LeftKnee	-34.72	-10.43	0.22
RightKnee	-22.21	9.42	8.13
LeftAnkle	-34.72	-10.43	0.22
RightAnkle	0.00	0.00	0.00
210
Head	-42.77	5.50	-5.79
Neck	-42.77	5.50	-5.79
LeftCollar	-42.77	5.50	-5.79
Torso	-42.77	5.50	-5.79
root	120.47	-450.34	2942.05	-12.25	-4.48	1.64
LeftShoulder	-19.79	-3.56	-46.55
RightShoulder	-18.27	34.36	63.72
LeftElbow	-46.61	62.29	-90.95
RightElbow	-18.66	-35.99	85.50
LeftWrist	-42.33	59.88	-86.07
RightWrist	-19.02	-37.41	86.10
LeftHand	-42.33	59.88	-86.07
RightHand	-19.02	-37.41	86.10
LeftHip	70.75	-11.76	0.59
RightHip	44.43	7.93	7.17
LeftKnee	-37.99	-11.76	0.59
RightKnee	-24.52	7.93	7.17
LeftAnkle	-37.99	-11.76	0.59
RightAnkle	0.00	0.00	0.00
211
Head	-44.42	4.61	-5.19
Neck	-44.42	4.61	-5.19
LeftCollar	-44.42	4.61	-5.19
Torso	-44.42	4.61	-5.19
root	119.80	-400.97	2934.43	-15.44	-4.46	1.62
LeftShoulder	-20.62	-6.67	-47.96
RightShoulder	-15.56	38.57	64.28
LeftElbow	-39.93	56.97	-85.52
RightElbow	-14.20	-31.23	81.60
LeftWrist	-34.34	51.67	-78.65
RightWrist	-14.33	-32.07	81.85
LeftHand	-34.34	51.67	-78.65
RightHand	-14.33	-32.07	81.85
LeftHip	66.20	-11.67	2.25
RightHip	41.32	5.30	7.04
LeftKnee	-36.90	-11.67	2.25
RightKnee	-27.63	5.30	7.04
LeftAnkle	-36.90	-11.67	2.25
RightAnkle	0.00	0.00	0.00
212
Head	-44.42	4.61	-5.19
Neck	-44.42	4.61	-5.19
LeftCollar	-44.42	4.61	-5.19
Torso	-44.42	4.61	-5.19
root	119.80	-400.97	2934.43	-15.44	-4.46	1.62
LeftShoulder	-20.62	-6.67	-47.96
RightShoulder	-15.56	38.57	64.28
LeftElbow	-39.93	56.97	-85.52
RightElbow	-14.20	-31.23	81.60
LeftWrist	-34.34	51.67	-78.65
RightWrist	-14.33	-32.07	81.85
LeftHand	-34.34	51.67	-78.65
RightHand	-14.33	-32.07	81.85
LeftHip	66.20	-11.67	2.25
RightHip	41.32	5.30	7.04
LeftKnee	-36.90	-11.67	2.25
RightKnee	-27.63	5.30	7.04
LeftAnkle	-36.90	-11.67	2.25
RightAnkle	0.00	0.00	0.00
213
Head	-46.30	3.28	-5.00
Neck	-46.30	3.28	-5.00
LeftCollar	-46.30	3.28	-5.00
Torso	-46.30	3.28	-5.00
root	121.69	-328.39	2929.82	-20.17	-3.80	0.44
LeftShoulder	-23.15	-3.21	-48.57
RightShoulder	-18.90	39.33	62.08
LeftElbow	-38.16	50.55	-81.19
RightElbow	-16.00	-24.69	81.15
LeftWrist	-33.36	44.45	-74.69
RightWrist	-16.04	-25.00	81.25
LeftHand	-33.36	44.45	-74.69
RightHand	-16.04	-25.00	81.25
LeftHip	61.08	-9.62	2.57
RightHip	39.25	11.17	12.38
LeftKnee	-32.52	-9.62	2.57
RightKnee	-29.70	11.17	12.38
LeftAnkle	-32.52	-9.62	2.57
RightAnkle	0.00	0.00	0.00
214
Head	-46.30	3.28	-5.00
Neck	-46.30	3.28	-5.00
LeftCollar	-46.30	3.28	-5.00
Torso	-46.30	3.28	-5.00
root	121.69	-328.39	2929.82	-20.17	-3.80	0.44
LeftShoulder	-23.15	-3.21	-48.57
RightShoulder	-18.90	39.33	62.08
LeftElbow	-38.16	50.55	-81.19
RightElbow	-16.00	-24.69	81.15
LeftWrist	-33.36	44.45	-74.69
RightWrist	-16.04	-25.00	81.25
LeftHand	-33.36	44.45	-74.69
RightHand	-16.04	-25.00	81.25
LeftHip	61.08	-9.62	2.57
RightHip	39.25	11.17	12.38
LeftKnee	-32.52	-9.62	2.57
RightKnee	-29.70	11.17	12.38
LeftAnkle	-32.52	-9.62	2.57
RightAnkle	0.00	0.00	0.00
215
Head	-46.30	3.28	-5.00
Neck	-46.30	3.28	-5.00
LeftCollar	-46.30	3.28	-5.00
Torso	-46.30	3.28	-5.00
root	121.69	-328.39	2929.82	-20.17	-3.80	0.44
LeftShoulder	-23.15	-3.21	-48.57
RightShoulder	-18.90	39.33	62.08
LeftElbow	-38.16	50.55	-81.19
RightElbow	-16.00	-24.69	81.15
LeftWrist	-33.36	44.45	-74.69
RightWrist	-16.04	-25.00	81.25
LeftHand	-33.36	44.45	-74.69
RightHand	-16.04	-25.00	81.25
LeftHip	61.08	-9.62	2.57
RightHip	39.25	11.17	12.38
LeftKnee	-32.52	-9.62	2.57
RightKnee	-29.70	11.17	12.38
LeftAnkle	-32.52	-9.62	2.57
RightAnkle	0.00	0.00	0.00
216
Head	-47.74	2.72	-4.38
Neck	-47.74	2.72	-4.38
LeftCollar	-47.74	2.72	-4.38
Torso	-47.74	2.72	-4.38
root	122.89	-249.28	2928.14	-21.87	-2.34	-0.45
LeftShoulder	-24.52	-1.61	-50.22
RightShoulder	-20.86	39.10	61.48
LeftElbow	-37.73	47.31	-80.58
RightElbow	-17.24	-21.24	81.41
LeftWrist	-33.42	41.12	-74.41
RightWrist	-17.23	-21.14	81.38
LeftHand	-33.42	41.12	-74.41
RightHand	-17.23	-21.14	81.38
LeftHip	60.95	-6.00	3.55
RightHip	37.48	5.93	5.24
LeftKnee	-27.84	-6.00	3.55
RightKnee	-38.13	5.93	5.24
LeftAnkle	-27.84	-6.00	3.55
RightAnkle	-38.13	5.93	5.24
217
Head	-48.14	3.13	-5.01
Neck	-48.14	3.13	-5.01
LeftCollar	-48.14	3.13	-5.01
Torso	-48.14	3.13	-5.01
root	124.08	-173.92	2925.55	-20.74	0.36	-1.22
LeftShoulder	-22.93	-1.22	-53.64
RightShoulder	-22.24	36.85	60.56
LeftElbow	-30.88	40.63	-75.43
RightElbow	-18.52	-17.57	80.11
LeftWrist	-28.05	34.07	-70.77
RightWrist	-18.45	-16.89	79.87
LeftHand	-28.05	34.07	-70.77
RightHand	-18.45	-16.89	79.87
LeftHip	51.89	-5.18	3.41
RightHip	35.64	7.24	4.08
LeftKnee	-24.18	-5.18	3.41
RightKnee	-28.62	7.24	4.08
LeftAnkle	-24.18	-5.18	3.41
RightAnkle	-28.62	7.24	4.08
218
Head	-48.14	3.13	-5.01
Neck	-48.14	3.13	-5.01
LeftCollar	-48.14	3.13	-5.01
Torso	-48.14	3.13	-5.01
root	124.08	-173.92	2925.55	-20.74	0.36	-1.22
LeftShoulder	-22.93	-1.22	-53.64
RightShoulder	-22.24	36.85	60.56
LeftElbow	-30.88	40.63	-75.43
RightElbow	-18.52	-17.57	80.11
LeftWrist	-28.05	34.07	-70.77
RightWrist	-18.45	-16.89	79.87
LeftHand	-28.05	34.07	-70.77
RightHand	-18.45	-16.89	79.87
LeftHip	51.89	-5.18	3.41
RightHip	35.64	7.24	4.08
LeftKnee	-24.18	-5.18	3.41
RightKnee	-28.62	7.24	4.08
LeftAnkle	-24.18	-5.18	3.41
RightAnkle	-28.62	7.24	4.08
219
Head	-48.09	4.34	-5.42
Neck	-48.09	4.34	-5.42
LeftCollar	-48.09	4.34	-5.42
Torso	-48.09	4.34	-5.42
root	126.86	-105.03	2917.07	-17.00	4.38	-0.97
LeftShoulder	-23.34	-3.43	-56.12
RightShoulder	-22.71	35.36	60.92
LeftElbow	-28.68	34.49	-74.80
RightElbow	-18.87	-13.28	79.02
LeftWrist	-26.58	27.87	-70.76
RightWrist	-18.78	-12.13	78.62
LeftHand	-26.58	27.87	-70.76
RightHand	-18.78	-12.13	78.62
LeftHip	44.13	-4.45	2.80
RightHip	31.25	10.59	3.74
LeftKnee	-21.91	-4.45	2.80
RightKnee	-18.25	10.59	3.74
LeftAnkle	-21.91	-4.45	2.80
RightAnkle	-18.25	10.59	3.74
220
Head	-48.09	4.34	-5.42
Neck	-48.09	4.34	-5.42
LeftCollar	-48.09	4.34	-5.42
Torso	-48.09	4.34	-5.42
root	126.86	-105.03	2917.07	-17.00	4.38	-0.97
LeftShoulder	-23.34	-3.43	-56.12
RightShoulder	-22.71	35.36	60.92
LeftElbow	-28.68	34.49	-74.80
RightElbow	-18.87	-13.28	79.02
LeftWrist	-26.58	27.87	-70.76
RightWrist	-18.78	-12.13	78.62
LeftHand	-26.58	27.87	-70.76
RightHand	-18.78	-12.13	78.62
LeftHip	44.13	-4.45	2.80
RightHip	31.25	10.59	3.74
LeftKnee	-21.91	-4.45	2.80
RightKnee	-18.25	10.59	3.74
LeftAnkle	-21.91	-4.45	2.80
RightAnkle	-18.25	10.59	3.74
221
Head	-48.09	4.34	-5.42
Neck	-48.09	4.34	-5.42
LeftCollar	-48.09	4.34	-5.42
Torso	-48.09	4.34	-5.42
root	126.86	-105.03	2917.07	-17.00	4.38	-0.97
LeftShoulder	-23.34	-3.43	-56.12
RightShoulder	-22.71	35.36	60.92
LeftElbow	-28.68	34.49	-74.80
RightElbow	-18.87	-13.28	79.02
LeftWrist	-26.58	27.87	-70.76
RightWrist	-18.78	-12.13	78.62
LeftHand	-26.58	27.87	-70.76
RightHand	-18.78	-12.13	78.62
LeftHip	44.13	-4.45	2.80
RightHip	31.25	10.59	3.74
LeftKnee	-21.91	-4.45	2.80
RightKnee	-18.25	10.59	3.74
LeftAnkle	-21.91	-4.45	2.80
RightAnkle	-18.25	10.59	3.74
